<?xml version="1.0" encoding="UTF-8" standalone="no"?>
<svg
   xmlns:dc="http://purl.org/dc/elements/1.1/"
   xmlns:cc="http://creativecommons.org/ns#"
   xmlns:rdf="http://www.w3.org/1999/02/22-rdf-syntax-ns#"
   xmlns:svg="http://www.w3.org/2000/svg"
   xmlns="http://www.w3.org/2000/svg"
   xmlns:sodipodi="http://sodipodi.sourceforge.net/DTD/sodipodi-0.dtd"
   xmlns:inkscape="http://www.inkscape.org/namespaces/inkscape"
   width="120mm"
   height="132.114mm"
   viewBox="0 0 120 132.114"
   version="1.1"
   id="svg8"
   inkscape:version="1.0.2 (e86c870879, 2021-01-15)"
   sodipodi:docname="cat-delete.svg">
  <defs
     id="defs2" />
  <sodipodi:namedview
     id="base"
     pagecolor="#ffffff"
     bordercolor="#666666"
     borderopacity="1.0"
     inkscape:pageopacity="0.0"
     inkscape:pageshadow="2"
     inkscape:zoom="0.35"
     inkscape:cx="400"
     inkscape:cy="560"
     inkscape:document-units="mm"
     inkscape:current-layer="layer1"
     inkscape:document-rotation="0"
     showgrid="false"
     inkscape:window-width="1763"
     inkscape:window-height="1018"
     inkscape:window-x="0"
     inkscape:window-y="0"
     inkscape:window-maximized="0" />
  <metadata
     id="metadata5">
    <rdf:RDF>
      <cc:Work
         rdf:about="">
        <dc:format>image/svg+xml</dc:format>
        <dc:type
           rdf:resource="http://purl.org/dc/dcmitype/StillImage" />
        <dc:title></dc:title>
      </cc:Work>
    </rdf:RDF>
  </metadata>
  <g
     inkscape:label="Layer 1"
     inkscape:groupmode="layer"
     id="layer1">
    <g
       id="g1010"
       transform="matrix(0.88938619,0,0,0.88938619,-104.87629,-99.359714)">
      <path
         d="m 233.12295,146.12885 h -24.91458 v -24.91457 z m 3.30765,11.28889 V 253.3733 H 123.54171 V 134.83997 a 16.933333,16.933333 0 0 1 16.93334,-16.93334 h 56.44444 v 39.51111 z m -84.66667,50.8 h 39.51111 v -11.28889 h -39.51111 z m 56.44444,11.28889 h -56.44444 v 11.28889 h 56.44444 z m 0,-45.15555 h -56.44444 v 11.28888 h 56.44444 z"
         id="path868-6"
         style="stroke-width:5.64444" />
      <path
         d="m 235.58456,193.11155 a 34.859647,34.859647 0 1 0 0,49.29897 34.897411,34.897411 0 0 0 0,-49.29897 z m -43.1366,43.1366 a 26.144736,26.144736 0 1 1 36.97422,0 26.173785,26.173785 0 0 1 -36.97422,0 z m 28.75773,-8.21649 a 4.357456,4.357456 0 0 1 -6.16238,0 l -4.10824,-4.10825 -4.10826,4.10825 a 4.357456,4.357456 0 0 1 -6.16237,-6.16237 l 4.10826,-4.10825 -4.10826,-4.10826 a 4.357456,4.357456 0 0 1 6.16237,-6.16237 l 4.10826,4.10826 4.10825,-4.10826 a 4.357456,4.357456 0 0 1 6.16237,6.16237 l -4.10825,4.10826 4.10825,4.10824 a 4.357456,4.357456 0 0 1 0,6.16238 z"
         id="path833-3-7"
         style="fill:#ffffff;stroke:#000000;stroke-width:2.90497" />
    </g>
  </g>
</svg>
